<?xml version="1.0" encoding="utf-8"?>
<!-- Generator: Adobe Illustrator 21.0.2, SVG Export Plug-In . SVG Version: 6.00 Build 0)  -->
<svg version="1.1" id="Ebene_1" xmlns="http://www.w3.org/2000/svg" xmlns:xlink="http://www.w3.org/1999/xlink" x="0px" y="0px"
	 viewBox="0 0 776.3 238.4" enable-background="new 0 0 776.3 238.4" xml:space="preserve">
<g>
	<path fill="none" stroke="#FF0000" stroke-width="3" stroke-miterlimit="10" d="M550.3,235c0.1-1.2,0.3-2.4,0.3-3.6
		c0-43.8,0.1-87.5,0-131.3c0-11.9-0.5-23.7-0.8-35.7c0-1.1,0-2.1,0-3.4c5.9,0,11.4,0,17.5,0c0.3,6.9,0.6,13.8,1,21.2
		c1.7-2.4,2.9-4.5,4.5-6.2c3.4-3.7,6.5-8,10.6-10.7c11.1-7.5,23.7-8.9,36.3-4.8c10,3.3,17.6,10.3,22.7,19.4
		c12.7,22.6,12.8,46.5,6.2,70.8c-2.9,10.8-8.8,20.1-17.4,27.5c-2.4,2.1-5.1,3.9-8,5.2c-8.2,3.9-16.8,6.1-26,4.4
		c-10.4-2-19-6.7-25-15.9c-0.5-0.8-1.2-1.6-2.1-2.8c-0.2,1.2-0.3,2-0.3,2.7c0,20.3,0,40.5,0,60.8c0,0.8,0.2,1.6,0.3,2.4
		C563.6,235,556.9,235,550.3,235z M569.3,125c0.2,0,0.5,0.1,0.7,0.1c0,2.5-0.1,5.1,0,7.5c0.2,15.6,4.8,28.5,20.3,35.5
		c6.6,3,13.2,3,19.6,0.7c10.9-4,17-12.8,20-23.5c4.6-15.9,4.6-31.8-1.2-47.5c-3-7.9-7.8-14.7-15.4-18.5c-8.7-4.2-17.8-4.1-26.3,1.5
		c-8.2,5.4-13.1,13-15.1,22.2C570.2,110.3,570,117.7,569.3,125z"/>
	<path fill="none" stroke="#FF0000" stroke-width="3" stroke-miterlimit="10" d="M775.3,3.3c-0.1,1.4-0.3,2.8-0.3,4.2
		c0,57.8,0,115.5,0,173.3c0,1.4,0,2.8,0,4.4c-6.6,0-12.9,0-19.5,0c-0.1-0.8-0.2-1.6-0.2-2.5c0-59.3,0-118.5,0-177.8
		c0-0.5,0.1-1,0.1-1.5C762,3.3,768.6,3.3,775.3,3.3z"/>
	<path fill="none" stroke="#FF0000" stroke-width="3" stroke-miterlimit="10" d="M88.8,185.2c-6.6,0-12.5,0-19,0
		c-0.1-1.3-0.2-2.6-0.2-3.8c0-22.5,0-44.9,0-67.4c0-8.5-0.5-16.9-4.4-24.7c-5.5-11.2-16-15.4-27.3-9.9C30.4,83.1,25.7,90,23.4,98.1
		c-1.3,4.9-2.1,10-2.1,15.2c-0.2,22.8-0.1,45.6-0.1,68.3c0,1.2,0,2.4,0,3.7c-6.5,0-12.6,0-19.4,0c0-41.3,0-82.6,0-124.1
		c5.1,0,10.6,0,16.5,0c0.3,6.6,0.7,13.1,1,19.9c2.6-3.5,4.9-6.9,7.5-10c1.7-2.1,3.4-4.2,5.6-5.7c10-7,21.2-9,32.6-4.7
		C74,64,79.8,71.3,83.4,80.2c0.3,0.9,0.7,1.9,1,2.6c3-4,5.9-8,8.9-11.8c1.6-2,3.4-3.9,5.5-5.5c10.3-7.3,21.7-9.2,33.4-4.6
		c10.6,4.2,16.5,13.1,20.1,23.6c3,9,3.9,18.2,3.9,27.6c0,23.1,0,46.2,0,69.3c0,1.2,0,2.4,0,3.8c-6.4,0-12.6,0-19.2,0
		c0-1.3,0-2.4,0-3.6c0-21.7,0.2-43.4-0.1-65c-0.1-7.5-0.9-15.4-3-22.6c-4-14.3-15.3-20.4-28.7-14.9c-6.6,2.7-10.7,8.5-13.4,15
		c-2.3,5.5-2.9,11.3-2.9,17.1c0,23.4,0,46.8,0,70.1C88.8,182.5,88.8,183.7,88.8,185.2z"/>
	<path fill="none" stroke="#FF0000" stroke-width="3" stroke-miterlimit="10" d="M719,105.3c0.3-9.4-1-18.9-9.2-25.5
		c-2.6-2.1-6.6-3.1-10-3.7c-8.3-1.3-16.5,0.1-24.3,3.1c-3.1,1.2-5.9,3.2-9.2,5.1c-1.5-4.7-2.8-9.1-4.1-13.5c-0.2-0.6,0.2-1.6,0.7-2
		c1.6-1.3,3.4-2.6,5.2-3.4c13.6-6.5,28-9,42.7-5.2c10.7,2.8,18.2,9.8,22.6,20.1c3.8,8.9,5,18.4,5.1,28c0.1,19.2,0.1,38.5,0.3,57.7
		c0.1,6.3,0.8,12.7,1.2,19.3c-5.4,0-10.8,0.1-16.2-0.1c-0.6,0-1.5-1.6-1.6-2.5c-0.6-4.1-0.9-8.3-1.3-12.9c-2.4,2.6-4.2,5.2-6.6,7.1
		c-3.3,2.8-6.8,5.5-10.6,7.5c-6.8,3.6-14.2,4.9-21.8,3.5c-11.7-2-20.1-8.4-24.6-19.5c-5.2-12.9-4.4-25.7,2.1-37.8
		c2.1-4,5.5-7.7,9-10.6c7.7-6.4,16.7-10,26.7-11.4C702.9,107.4,710.8,106.4,719,105.3z M720,122.4c-3,0-5.1-0.1-7.2,0
		c-9.5,0.2-19,0.9-27.2,6.2c-3,1.9-5.7,4.6-7.9,7.5c-4.2,5.7-4.6,12.5-3.5,19.4c1.5,9.3,8.5,16.3,18.5,15.7c4.5-0.2,8.8-1,12.8-3.5
		c7-4.4,11.7-10.5,12.9-18.3C719.8,140.6,719.5,131.7,720,122.4z"/>
	<path fill="none" stroke="#FF0000" stroke-width="3" stroke-miterlimit="10" d="M301,185.1c-6.7,0-12.9,0-19.9,0
		c0-41.4,0-82.6,0-124.1c5.2,0,10.8,0,16.8,0c0.4,6.6,0.8,13.2,1.2,19.9c2.6-3.4,5-6.7,7.7-9.9c1.8-2.1,3.7-4.2,6-5.7
		c10.9-7.2,22.8-9.3,35-4.6c11,4.2,17.8,12.8,21.6,23.8c3.1,8.8,4,17.8,4,27c0,23.3,0,46.6,0,69.9c0,1.2,0,2.4,0,3.7
		c-6.7,0-12.9,0-19.7,0c0-1.3,0-2.4,0-3.6c-0.1-23.5,0-47-0.1-70.4c-0.1-7.6-1.2-15.2-4.9-21.8c-5.2-9.3-12.7-13.8-25.7-11.1
		c-8.8,1.9-14.3,8.2-18.2,16c-3.1,6.2-3.8,12.8-3.8,19.7c0.1,22.6,0.1,45.2,0.1,67.8C301,182.6,301,183.8,301,185.1z"/>
	<path fill="none" stroke="#FF0000" stroke-width="3" stroke-miterlimit="10" d="M244.2,61c6.6,0,12.7,0,19.6,0
		c0,41.4,0,82.6,0,124.1c-5.1,0-10.7,0-16.7,0c-0.4-6.3-0.8-12.7-1.2-19.8c-1.8,2.5-3.1,4.6-4.7,6.6c-1.9,2.3-3.6,4.8-5.9,6.7
		c-9.8,8.1-21,11.8-33.6,8.9c-10.6-2.5-18.2-9.1-22.8-19c-4.6-9.8-6.3-20.1-6.3-30.8c-0.1-24.5-0.1-49,0-73.5c0-1,0.1-2,0.2-3.1
		c6.4,0,12.6,0,19.1,0c0.1,1.3,0.2,2.6,0.2,3.9c0,21.4-0.1,42.7,0.1,64.1c0.1,8.5,0.5,17.1,3.6,25.3c2.4,6.3,6.1,11.2,12.9,13.6
		c9.1,3.3,16.5,0.7,23.5-4.9c8.9-7.3,11.8-17.1,11.8-28.1c-0.1-23.3,0-46.6,0-69.9C244,63.7,244.2,62.4,244.2,61z"/>
	<path fill="none" stroke="#FF0000" stroke-width="3" stroke-miterlimit="10" d="M505.4,64.8c-1.6,6-3,11.7-4.6,17.9
		c-6.2-4.4-12.9-5.9-19.9-5.7c-5.1,0.1-10.5,0.2-15.2,1.7c-9.8,3.2-16.5,10.2-20.6,19.6c-6.6,15.3-6.9,30.9-1.5,46.5
		c2.4,7,6.4,12.9,12.4,17.7c9.5,7.4,20.2,8.8,31.5,6.4c4.6-1,9.1-3.1,14-4.8c1,5.2,2.2,10.4,3,15.6c0.1,0.7-1.7,1.7-2.8,2.5
		c-0.5,0.4-1.1,0.8-1.7,1c-11.9,4.1-24.2,6.5-36.7,3.9c-12.4-2.6-22.9-8.6-30.6-19.2c-10.5-14.3-13.1-30.6-12.6-47.7
		c0.4-13.1,3.7-25.4,10.7-36.5c4.2-6.6,9.6-12.1,16.4-16.4c14.9-9.5,30.8-10.3,47.4-6.6C498.2,61.5,501.6,63.3,505.4,64.8z"/>
	<path fill="none" stroke="#FF0000" stroke-width="3" stroke-miterlimit="10" d="M532.4,185.1c-6.4,0-12.8,0-19.4,0
		c0-41.4,0-82.6,0-124.1c6.5,0,12.8,0,19.4,0C532.4,102.3,532.4,143.6,532.4,185.1z"/>
	<path fill="none" stroke="#FF0000" stroke-width="3" stroke-miterlimit="10" d="M390.5,60.9c1.2,0,2,0,2.8,0c5.3,0,10.7,0,16.3,0
		c0,41.5,0,82.7,0,124.3c-6.3,0-12.6,0-19.2,0C390.5,143.8,390.5,102.4,390.5,60.9z"/>
	<path fill="none" stroke="#FF0000" stroke-width="3" stroke-miterlimit="10" d="M522.7,12.4c7.2-0.1,12.2,5.6,12.3,14.2
		c0.1,7.7-5.1,13.9-12.5,13.9c-6.9,0-11.9-6.3-12-13.9C510.3,18.5,515.7,12.4,522.7,12.4z"/>
	<path fill="none" stroke="#FF0000" stroke-width="3" stroke-miterlimit="10" d="M412.3,26.7c0.3,8.5-6.3,14.9-14.7,13.6
		c-4.6-0.8-9.6-6.3-9.8-13.4c-0.2-10,7.5-16.7,16.4-13.9C408.4,14.2,412.7,19.9,412.3,26.7z"/>
</g>
</svg>
