<?xml version="1.0" encoding="utf-8"?>
<!-- Generator: Adobe Illustrator 21.0.2, SVG Export Plug-In . SVG Version: 6.00 Build 0)  -->
<svg version="1.1" id="Ebene_1" xmlns="http://www.w3.org/2000/svg" xmlns:xlink="http://www.w3.org/1999/xlink" x="0px" y="0px"
	 viewBox="0 0 776.3 238.4" enable-background="new 0 0 776.3 238.4" xml:space="preserve">
<path fill="none" stroke="#0000FF" stroke-width="3" stroke-miterlimit="10" d="M640.9,0c-0.1,1.2-0.1,2.4-0.1,3.6
	c0,56.8,0,113.5,0,170.3c0,6.4,0.4,12.8,0.6,19.3c0.1,1.1,0,2.1,0,3.3c-5.8,0-11.2,0-17.2,0c-0.3-7.4-0.6-14.8-1-22.2
	c-0.2-0.1-0.4-0.1-0.5-0.2c-0.5,1-1.1,2.1-1.6,3.1c-3.4,6.7-8.1,12.1-14.3,16.4c-1.9,1.3-4,2.6-6.2,3.2c-4.9,1.2-9.9,2.9-14.7,2.7
	c-8.7-0.4-16.6-3.4-23.4-9.5c-11.6-10.5-17-24.1-19.6-39c-3-17.6-2.4-35.1,2.8-52.3c3.3-11.1,8.6-21.2,17.3-29
	c10.9-9.8,23.9-12.8,37.9-8.3c8.9,2.9,15.8,9,20.4,17.9c0-26.5,0-52.8,0-79.3C627.9,0,634.4,0,640.9,0z M622,128.9
	c-0.2,0-0.5-0.1-0.7-0.1c0-4,0-8.1,0-12.2c-0.1-6.2-1-12.2-3.3-18c-3.1-7.8-7.7-14.7-15.6-17.8c-12.4-4.8-23.5-1.2-31.1,9.6
	c-6,8.5-8.7,18.3-9.7,28.5c-1.5,14.7-0.7,29.2,5.5,43c4.2,9,10.8,15.4,20.6,17.4c7.7,1.5,14.7-1,20.5-5.9c6-5.2,10-12,11.3-19.9
	C620.9,145.5,621.3,137.1,622,128.9z"/>
<path fill="none" stroke="#0000FF" stroke-width="3" stroke-miterlimit="10" d="M103.6,121.9c0.1,20.9-2,34.8-8.4,47.8
	c-4.6,9.5-11.1,17.3-20.3,22.8c-5.6,3.4-11.7,4.9-18.1,6.4c-7.2,1.7-13.9-0.1-20.3-1.9c-7.3-2.1-13.4-6.4-18.5-12.1
	c-12.7-14-17-31-17.9-49.2c-0.7-13.6,0.8-27,5.6-39.9c3.7-10.2,9.4-19.3,17.9-26.1c9-7.3,19.5-10.7,31.2-10
	c5.8,0.4,11.5,1.2,16.8,3.9c7.1,3.6,13.1,8.4,17.9,15C100.4,93.5,103.5,110.6,103.6,121.9z M19.6,130.2c0.3,12.9,2.4,25.9,10,37.5
	c6.7,10.2,16.5,15.5,28.6,12.3c8.1-2.1,13.3-8.1,17.4-15.2c5.2-9.2,7.6-19.3,8.1-29.7c0.8-17.1-1.4-33.4-12.1-47.7
	c-5-6.7-17.2-11.5-25.8-8.7c-9.3,3-14.9,8.9-19,17C21.3,106.4,19.8,117.9,19.6,130.2z"/>
<path fill="none" stroke="#0000FF" stroke-width="3" stroke-miterlimit="10" d="M767.1,173.6c1.1,5.6,2.1,11,3,16.4
	c0.1,0.5-0.8,1.4-1.5,1.8c-8.8,4.5-18.3,6.2-28.1,7.1c-6.7,0.6-13.2-0.1-19.5-1.6c-9.5-2.3-17.2-7.6-23.2-15.3
	c-12.5-15.9-15.2-34.5-14.9-53.9c0.2-13,2.6-25.7,7.8-37.7c4.2-9.6,10-18,18.7-23.9c11-7.6,23.4-8.9,35.8-5.1
	c8.9,2.7,15.7,8.9,20.4,17.1c9.9,17.2,11.8,35.9,10.2,55.6c-24.8,0-49.5,0-74.3,0c-0.3,6.8,0.8,13.1,2.5,19.3
	c2.2,8,6.2,14.8,12.6,20.2c2.1,1.7,4.6,2.9,7.1,4c7.5,3.6,15.6,3.4,23.5,2.2c5.8-0.9,11.4-3.3,17.1-5
	C765.1,174.4,766,174.1,767.1,173.6z M758,116.4c-0.4-4.2-0.4-8.2-1.2-12.1c-2.2-10.9-5.7-20.9-17.4-25.7
	c-5.4-2.3-16.8-1.3-21.6,2.7c-4.3,3.6-7.8,7.8-10.2,13c-3.3,7-5.3,14.3-5.9,22.2C720.4,116.4,738.8,116.4,758,116.4z"/>
<path fill="none" stroke="#0000FF" stroke-width="3" stroke-miterlimit="10" d="M215.4,62.6c6.7,0,12.8,0,19.6,0
	c0,44.6,0,89.1,0,133.8c-5.1,0-10.6,0-16.4,0c-0.4-7-0.8-14-1.1-20.6c-3.7,4.6-7.4,9.5-11.4,13.9c-4.3,4.7-9.9,7.3-16.2,8.8
	c-5.4,1.2-10.5,1.1-16-0.1c-9.5-2.3-15.8-8.2-20.3-16.3c-6.4-11.5-8-24.1-8.1-36.9c-0.3-26.8-0.1-53.5-0.1-80.3c0-0.6,0.1-1.2,0.1-2
	c6.4,0,12.6,0,19.3,0c0,1.2,0,2.4,0,3.5c0.1,24.8,0,49.8,0.1,74.6c0.1,8.9,1.1,17.7,5,26c4.7,9.8,11.2,12.4,20.9,11.7
	c9.3-0.7,14.9-6.5,19.4-13.9c4-6.5,5.3-13.7,5.3-21.3c-0.1-25.7,0-51.3,0-77C215.4,65.3,215.4,64.1,215.4,62.6z"/>
<path fill="none" stroke="#0000FF" stroke-width="3" stroke-miterlimit="10" d="M289,80.8c-5.8,0-11.1,0-16.4,0c0-6.1,0-12,0-18.3
	c5.5,0,10.8,0,16.4,0c0-11.1,0-21.8,0-32.3c6.5-2.1,12.6-4.1,19-6.2c0,12.7,0,25.4,0,38.5c9.2,0,18.2,0,27.3,0c0,6.2,0,12.1,0,18.3
	c-8.9,0-17.8,0-27,0c-0.1,1.2-0.2,2.3-0.2,3.3c0,24.1-0.1,48.2,0,72.2c0,5.6,0.6,11.2,3.4,16.4c2.8,5.2,9,7.8,14.7,6.1
	c2.3-0.7,4.6-0.8,7.4-1.2c0.3,5.8,0.6,11.5,0.7,17.2c0,0.7-1.2,1.8-2,2.1c-2,0.7-4,1.1-6.1,1.4c-4.9,0.7-9.8,1.2-14.9,0.2
	c-11.1-2.2-17.2-9.6-19.6-19.9c-1.7-6.8-2.5-14-2.6-21.1c-0.3-24.1-0.1-48.3-0.1-72.5C289,83.8,289,82.5,289,80.8z"/>
<path fill="none" stroke="#0000FF" stroke-width="3" stroke-miterlimit="10" d="M372.5,171.3c1.1,0.9,1.8,1.7,2.7,2.2
	c9.4,5.8,19.4,9.4,30.5,6.4c6.8-1.8,11.7-6.5,12.7-16.2c1-9-1.9-16.6-10-21.4c-4.9-2.9-10-5.4-15-8.2c-17.2-9.7-27.1-25.2-20.9-48.3
	c2.9-10.9,9.6-18.8,20-23.5c7.8-3.4,15.8-3.5,23.8-1.9c5.4,1.1,10.3,3.8,15.5,6c0.7,0.3,1.6,1.8,1.4,2.4c-1.4,5.5-2.9,11-4.5,16.7
	c-6.5-5-13.7-7.8-21.6-7.8c-11.3,0.1-18.3,7.9-17.8,19.2c0.2,6.6,3.2,11.7,8.9,15c4.8,2.9,9.7,5.5,14.7,8.1
	c14.6,7.8,23.9,19,24.3,36.3c0.2,9-1,17.6-5.7,25.3c-3.6,5.9-8.6,10.3-15,13.5c-5.7,2.9-11.8,3.6-17.7,3.7
	c-6.7,0.2-13.7-0.3-20.1-3.4c-3-1.5-6.2-2.7-9.3-4.4c-0.8-0.4-1.5-1.9-1.4-2.6C369.3,183,370.9,177.4,372.5,171.3z"/>
<path fill="none" stroke="#0000FF" stroke-width="3" stroke-miterlimit="10" d="M480,62.7c6.2,0,12.5,0,18.9,0
	c0,44.6,0,89.2,0,133.9c-6.4,0-12.5,0-18.9,0C480,151.9,480,107.4,480,62.7z"/>
<path fill="none" stroke="#0000FF" stroke-width="3" stroke-miterlimit="10" d="M502,25.1c-0.8,5.1-1.8,9.5-6,12.7
	c-5.9,4.5-13.9,2.5-16.9-4.4c-2.9-6.7-2.9-13.6,2-19.5c5.5-6.7,13.8-5.4,17.7,1.5C500.5,18.3,501,21.8,502,25.1z"/>
</svg>
