<?xml version="1.0" encoding="utf-8"?>
<!-- Generator: Adobe Illustrator 21.0.2, SVG Export Plug-In . SVG Version: 6.00 Build 0)  -->
<svg version="1.1" id="Ebene_1" xmlns="http://www.w3.org/2000/svg" xmlns:xlink="http://www.w3.org/1999/xlink" x="0px" y="0px"
	 viewBox="0 0 776.3 238.4" enable-background="new 0 0 776.3 238.4" xml:space="preserve">
<path fill="none" stroke="#FFFFFF" stroke-width="3" stroke-miterlimit="10" d="M231.5,121.2c0.7,14.8,2.4,28.9,12.4,40.4
	c4.9,5.6,11.2,9.7,19,9.8c6.2,0.2,12.6,0.1,18.7-1c4.6-0.8,8.8-3.4,13.3-5.2c0.5-0.2,1-0.3,1.8-0.6c1,6,2.1,11.8,2.9,17.5
	c0.1,0.8-0.7,2.3-1.5,2.7c-3.3,1.7-6.7,3.5-10.3,4.4c-5.8,1.4-11.9,1.7-17.7,3.1c-5.2,1.3-10.1-0.1-15-0.8
	c-8.4-1.1-15.4-5.4-21.3-11.2c-11.5-11.2-16.6-25.6-18.9-41.1c-3-20.1-2.1-40.1,3.8-59.6c3.3-10.8,8.2-20.8,16.4-28.8
	c4.8-4.8,10.1-8.9,17-10.1c4.8-0.8,9.6-1.7,14.4-1.4c9.8,0.6,17.7,5.4,23.9,13c8.7,10.9,12.6,23.7,14.2,37.2c1.1,9,1,18.2,1.2,27.3
	c0.1,4.2-0.3,4.2-4.5,4.2c-21.8,0-43.6,0-65.3,0C234.5,121.2,233.2,121.2,231.5,121.2z M287.9,101.3c-0.8-6.1-1-11.9-2.4-17.5
	c-2.1-9.1-5.3-17.6-14.2-22.6c-8.2-4.7-16.9-3.1-23.6,2.2c-5,4-8.1,9.3-10.5,15.1c-3,7.3-4.8,14.8-5.3,22.8
	C250.5,101.3,268.8,101.3,287.9,101.3z"/>
<path fill="none" stroke="#FFFFFF" stroke-width="3" stroke-miterlimit="10" d="M467.7,42.1c5.4,0,10.6,0,16.4,0
	c0.4,7.9,0.8,15.8,1.2,23.3c3.2-4.7,6.1-9.7,9.6-14c4.1-5.2,9.3-9.3,16-10.6c4-0.8,8-1.7,12-1.5c9.5,0.6,16.9,5.6,22.5,13.2
	c7.3,9.8,10.2,21.2,11.4,33.1c0.7,6.8,0.9,13.7,0.9,20.5c0.1,26.5,0.1,53,0.1,79.5c0,1.2,0,2.5,0,3.9c-6.5,0-12.6,0-19.3,0
	c0-1.2,0-2.3,0-3.4c0-27.5,0.1-55-0.1-82.5c-0.1-9-0.9-17.8-4.1-26.3c-2.3-6.3-6.2-11.2-12.2-14.5c-4.1-2.2-14.7-1.2-18.8,1.9
	c-11.6,8.6-15.9,20.9-16,34.6c-0.3,28.9-0.1,57.7-0.1,86.6c0,1.2,0,2.3,0,3.6c-6.5,0-12.7,0-19.5,0
	C467.7,140.4,467.7,91.4,467.7,42.1z"/>
<path fill="none" stroke="#FFFFFF" stroke-width="3" stroke-miterlimit="10" d="M34.8,0.2c0,14,0,27.8,0,41.7c9.1,0,17.9,0,27,0
	c0,6.9,0,13.6,0,20.5c-8.8,0-17.7,0-26.8,0c-0.1,1.1-0.3,2-0.3,2.8c0,27.1,0,54.2,0.2,81.3c0.1,5.9,0.6,11.8,3.4,17.2
	c2.3,4.7,5.9,7.4,11.3,7c3.4-0.2,6.9-0.8,10.6-1.3c0.3,6.1,0.8,12.4,0.8,18.7c0,0.9-2.2,2.3-3.5,2.7c-7.5,1.8-15.2,3-22.7,0.2
	c-6.9-2.6-11.3-7.9-14-14.6c-3.8-9.3-4.6-19.3-4.6-29.2c-0.1-26.9-0.1-53.8-0.1-80.7c0-1.2-0.1-2.5-0.2-4c-5.4,0-10.5,0-15.9,0
	c0-7,0-13.7,0-20.7c5.4,0,10.5,0,16.1,0c0-2.2,0-4.1,0-6.1c0-9,0-17.9,0-26.8c0-1.3,0.1-2.2,1.7-2.8c4.9-1.7,9.7-3.7,14.5-5.6
	C32.9,0.5,33.8,0.4,34.8,0.2z"/>
<path fill="none" stroke="#FFFFFF" stroke-width="3" stroke-miterlimit="10" d="M730.6,62.5c-5.8,0-10.9,0-16.2,0
	c0-6.9,0-13.5,0-20.4c5.4,0,10.6,0,16.1,0c0-11.9,0-23.4,0-35c6.3-2.4,12.3-4.7,18.7-7c0,14.1,0,27.8,0,41.8c9.1,0,17.9,0,27.1,0
	c0,7,0,13.7,0,20.7c-8.8,0-17.6,0-26.7,0c-0.1,1.2-0.3,2.3-0.3,3.3c0,27,0,54,0.1,80.9c0,5.9,0.7,11.8,3.4,17.1
	c2.3,4.5,5.8,7.2,11.1,6.9c3.5-0.2,7-0.8,10.8-1.3c0.2,6,0.7,12.2,0.6,18.4c0,1-2.2,2.6-3.5,3c-7.4,1.8-15,2.9-22.5,0.3
	c-6.5-2.3-10.7-7.2-13.6-13.4c-4.4-9.5-5.1-19.7-5.2-29.9c-0.1-27.1-0.1-54.2-0.1-81.3C730.6,65.4,730.6,64.2,730.6,62.5z"/>
</svg>
